inDegrees=no
num_controls=7
num_derivatives=13
num_iterations=148
num_multipliers=7
num_parameters=0
num_slacks=7
num_states=26
objective=5.281446
objective_accelerations=0.773227
objective_balance=0.038946
objective_effort=0.249173
objective_height=4.142989
objective_ligament=0.077111
solver_duration=1617.416453
status=Solve_Succeeded
success=true
DataType=double
version=3
OpenSimVersion=4.4-2022-07-23-0e9fedc
endheader
time	/jointset/ground_pelvis/pelvis_tilt/value	/jointset/ground_pelvis/pelvis_tx/value	/jointset/ground_pelvis/pelvis_ty/value	/jointset/hip_l/hip_flexion_l/value	/jointset/hip_l/hip_adduction_l/value	/jointset/hip_l/hip_rotation_l/value	/jointset/back/lumbar_extension/value	/jointset/patellofemoral_l/patellar_flexion_l/value	/jointset/knee_l/knee_flexion_l/value	/jointset/knee_l/knee_adduction_l/value	/jointset/knee_l/knee_rotation_l/value	/jointset/ankle_l/ankle_angle_l/value	/jointset/subtalar_l/subtalar_angle_l/value	/jointset/ground_pelvis/pelvis_tilt/speed	/jointset/ground_pelvis/pelvis_tx/speed	/jointset/ground_pelvis/pelvis_ty/speed	/jointset/hip_l/hip_flexion_l/speed	/jointset/hip_l/hip_adduction_l/speed	/jointset/hip_l/hip_rotation_l/speed	/jointset/back/lumbar_extension/speed	/jointset/patellofemoral_l/patellar_flexion_l/speed	/jointset/knee_l/knee_flexion_l/speed	/jointset/knee_l/knee_adduction_l/speed	/jointset/knee_l/knee_rotation_l/speed	/jointset/ankle_l/ankle_angle_l/speed	/jointset/subtalar_l/subtalar_angle_l/speed	/forceset/tau_hip_flexion_l	/forceset/tau_hip_adduction_l	/forceset/tau_hip_rotation_l	/forceset/tau_knee_flexion_l	/forceset/tau_ankle_angle_l	/forceset/tau_subtalar_angle_l	/forceset/tau_lumbar_extension	lambda_cid13_p0	lambda_cid13_p1	lambda_cid13_p2	lambda_cid13_p3	lambda_cid13_p4	lambda_cid13_p5	lambda_cid14_p0	/jointset/ground_pelvis/pelvis_tilt/accel	/jointset/ground_pelvis/pelvis_tx/accel	/jointset/ground_pelvis/pelvis_ty/accel	/jointset/hip_l/hip_flexion_l/accel	/jointset/hip_l/hip_adduction_l/accel	/jointset/hip_l/hip_rotation_l/accel	/jointset/back/lumbar_extension/accel	/jointset/patellofemoral_l/patellar_flexion_l/accel	/jointset/knee_l/knee_flexion_l/accel	/jointset/knee_l/knee_adduction_l/accel	/jointset/knee_l/knee_rotation_l/accel	/jointset/ankle_l/ankle_angle_l/accel	/jointset/subtalar_l/subtalar_angle_l/accel	gamma_cid13_p0	gamma_cid13_p1	gamma_cid13_p2	gamma_cid13_p3	gamma_cid13_p4	gamma_cid13_p5	gamma_cid14_p0
0.5	-0.4676498545287331	-0.0688359383862898	0.7625273012578762	1.269624883429726	-0.3584163662103346	-0.04599629410704138	-0.4114845289729035	0.747686320631364	0.7476863206311527	-0.064927383890708	-0.1745187607519014	0.05167652093635756	0.07767086234634174	-1.435894800825747	-0.4135493196403301	-0.5497858134875996	3.102405058168887	0.05915448845429891	0.4617281675353652	-0.2709301851103634	1.430595703065413	1.430595703065407	0.2310895819206619	0.0001344789302653285	-0.1245309018062902	0.01950724122050888	-0.1845013828691508	-0.01267317105483606	0.008240870448663647	-0.1318043880653715	0.07499236404133698	0.02498501014471082	0.1603182098271869	0.5596814012535642	-10.65356912671809	1.080022921378277	-7.106230448894951	-433.2815169738371	-78.57392188776566	-13.32627298076105	0.6073928053586418	0.7413599532018521	-0.4002507027919303	-1.899715427209581	0.1281351974207566	-0.4551395246298042	1.682695639085398	-1.182454837462349	-1.182454837462373	-0.4202849533639382	0.0644298606916848	-0.03634343084992657	0.1243132173714601	-8.972138962202855e-08	-1.175320097518605e-06	9.672888945350267e-08	-2.436912906452819e-07	-4.267673021305407e-07	4.099342441959322e-07	-2.622629966585826e-07
0.51	-0.4819752708955196	-0.0729337944706596	0.7570108582283375	1.300547953916181	-0.3578199365735622	-0.04140420043729372	-0.414111177656954	0.7619306879620613	0.7619306879620599	-0.06263918555305753	-0.1745170829350142	0.05042911836973257	0.07787049362947301	-1.42899914119182	-0.4059768123061642	-0.5533717728770141	3.081787445910481	0.06012204271053001	0.456624588703189	-0.2544071555485373	1.418061528406008	1.418061528405965	0.2265514195947195	0.0001891717293771656	-0.1249437457369256	0.02041151032421028	-0.1920432227118257	-0.01194129248746711	0.007678988115920158	-0.1318316102323929	0.07630392786609859	0.02582829165554588	0.1654575340988358	0.8125163550465966	-10.93188867262507	0.9734051358121021	-7.403505440355609	-437.3858086887601	-78.68005147635738	-12.73939467779397	0.7590118158317926	0.7719117203919739	-0.3181995210705985	-2.206070059510819	0.07984213982522963	-0.5480671224946094	1.635966037367256	-1.321281812265879	-1.321281812271559	-0.4706200959190623	-0.02571887333874658	-0.04292120474530915	0.07251953458729109	-9.285882792707442e-08	-1.059371775782994e-06	1.904389234735937e-07	-2.232586059099741e-07	-4.155916983048502e-07	4.401641005148943e-07	-2.588329781960727e-07
0.52	-0.4962260588112732	-0.07695458236231471	0.7514624694120937	1.331252191093192	-0.3572140760741987	-0.03686516256790554	-0.4165728241608541	0.7760432369397566	0.7760432369399523	-0.06039637648331942	-0.1745151997627321	0.04917775409768456	0.07807897475918486	-1.420969110621003	-0.3981356810973923	-0.5561749708285544	3.058638396277883	0.06104066097082381	0.4511170074716857	-0.2379297490812591	1.404232032463158	1.404232032463078	0.2220117283203909	0.000175550014097403	-0.1253232428905529	0.0212772105366243	-0.1995850625544689	-0.0112094139202424	0.00711710578344275	-0.1318588323994353	0.07761549169081272	0.02667157316621293	0.1705968583705578	1.065207619235592	-11.21098430899926	0.867826256781344	-7.703957761588738	-441.4926105181006	-78.82761724411125	-12.15572970266002	0.834266992736543	0.7950847281230013	-0.2436984152170934	-2.406002902048068	0.1183479982332166	-0.5359400044954028	1.673571020175918	-1.441519094151395	-1.441519094151489	-0.4205907430412201	0.05076695781307104	-0.02967407544836206	0.1165994391138556	-9.705330963773703e-08	-9.382174760801211e-07	2.932362056147496e-07	-1.981002308271425e-07	-4.077410459367398e-07	4.68684690900467e-07	-2.547763936530201e-07
0.53	-0.5103909839618054	-0.08089571661434508	0.7458899729686852	1.36171255318628	-0.3565994463817551	-0.03238215735427706	-0.4188699442891461	0.7900111332699252	0.7900111332700426	-0.0581997799640508	-0.1745131459222758	0.04792272145886603	0.07829571628039103	-1.411826078385901	-0.3900552936890007	-0.5581906756340639	3.033020929779455	0.06186222081928636	0.445458608219764	-0.2215151368693876	1.389139024599495	1.38913902459945	0.2172642435547312	0.000239818219032771	-0.1256810368422724	0.02204774070049317	-0.2072266711922976	-0.01075161764706566	0.006537565939385511	-0.131763882067486	0.0786266674743671	0.02759452800863841	0.1757325331108116	1.218656895556327	-11.51464775166845	0.7745507657151847	-7.886132068709873	-445.6854309477292	-79.03845910984111	-11.57572219735999	0.9827587540313208	0.8198601128335817	-0.1605409039179282	-2.701627938747784	0.06072456087713634	-0.5848061180465057	1.622277277838478	-1.574372449912308	-1.574372449907043	-0.5085144157988434	-0.01494152881651025	-0.0385304491948518	0.05387494815705593	-7.845785388016437e-08	-9.174365312243434e-07	1.322780892524599e-07	-2.122381660057076e-07	-3.50603507661491e-07	4.382042233798526e-07	-2.293519688905594e-07
0.54	-0.5244587913069501	-0.08475497811916496	0.7403013125990816	1.391904338731393	-0.3559772681742736	-0.02795653937969618	-0.4210035441040853	0.8038218633580386	0.8038218633579358	-0.05605199570711184	-0.1745102890557883	0.04666417120169788	0.07851948213186261	-1.401545549545427	-0.3817611316552902	-0.5594077560675154	3.004923086680713	0.06255036397673143	0.4396395596676155	-0.205225686411678	1.372798784038301	1.372798784038292	0.2122492758902642	0.0003361551979494485	-0.1260267665604294	0.02268207658971119	-0.2148682798300765	-0.01029382137396172	0.005958026094570748	-0.1316689317355203	0.07963784325790436	0.02851748285099212	0.1808682078511387	1.371897579387693	-11.81960183950989	0.6829970002299737	-8.075453387026613	-449.8849839360685	-79.29443217348701	-10.99998612116171	1.061766313811179	0.8378396531866877	-0.08397354080548346	-2.902078222110811	0.09166466002958744	-0.5680698645409472	1.648538669343631	-1.690965633657611	-1.690965633657634	-0.4740873228027185	0.05718071260904419	-0.02726122873594413	0.08936058418354867	-3.464799922156512e-08	-1.007706957688757e-06	-3.204945105604538e-07	-2.698528699841163e-07	-2.389357977443011e-07	3.424459896651579e-07	-1.802865294172638e-07
